<svg aria-hidden="true" style="width:0;height:0;position:absolute;overflow:hidden" xmlns="http://www.w3.org/2000/svg"><defs><symbol id="expand" viewBox="0 0 16 16" fill="none"><path d="M15.5 10.5v5m0 0h-5m5 0-4.688-4.688M.5 10.5v5m0 0h5m-5 0 4.688-4.688M15.5 5.5v-5m0 0h-5m5 0-4.688 4.688M.5 5.5v-5m0 0h5m-5 0 4.688 4.688" stroke="#000" stroke-linecap="round" stroke-linejoin="round"/></symbol><symbol id="check" viewBox="0 0 14 12" fill="none"><path d="m1.375 8.216 2.683 2.061a1 1 0 0 0 1.39-.169l7.177-8.983" stroke="#fff" stroke-linecap="round"/></symbol><symbol id="star" viewBox="0 0 16 16" fill="none"><path d="M6.386 3.295C7.07 1.59 7.412.738 8 .738c.588 0 .93.852 1.614 2.557l.032.08c.386.963.58 1.445.973 1.737.394.293.91.34 1.945.432l.187.017c1.691.151 2.537.227 2.718.765.181.538-.447 1.11-1.703 2.253l-.42.382c-.636.578-.954.868-1.102 1.247-.028.07-.05.143-.069.217-.097.395-.004.815.182 1.654l.058.262c.342 1.543.514 2.314.215 2.647a.869.869 0 0 1-.418.257c-.432.118-1.044-.381-2.27-1.38-.804-.655-1.206-.982-1.668-1.056a1.74 1.74 0 0 0-.548 0c-.462.074-.864.401-1.669 1.057-1.225.998-1.837 1.497-2.269 1.38a.869.869 0 0 1-.418-.258c-.299-.333-.127-1.104.215-2.647l.058-.262c.186-.84.28-1.259.182-1.654a1.74 1.74 0 0 0-.069-.217c-.148-.38-.466-.669-1.102-1.247l-.42-.382C.978 7.436.35 6.864.531 6.326c.18-.538 1.027-.614 2.718-.765l.187-.017c1.034-.093 1.551-.139 1.945-.432.394-.292.587-.774.973-1.737l.032-.08Z" fill="#F1582B"/></symbol><symbol id="chevron-right" viewBox="0 0 12 12" fill="none"><path d="m3.75.75 4.543 4.543a1 1 0 0 1 0 1.414L3.75 11.25" stroke="#042A30" stroke-linecap="round" stroke-linejoin="round"/></symbol><symbol id="flag" viewBox="0 0 16 16" fill="none"><path fill-rule="evenodd" clip-rule="evenodd" d="M2.98 0h9.692c.472 0 .88 0 1.184.043.295.042.706.152.882.568.175.416-.033.787-.208 1.028-.181.248-.465.54-.794.879l-2.23 2.294c-.33.339-.543.559-.678.741-.127.171-.142.251-.142.304 0 .053.015.133.142.304.136.183.348.402.678.742l2.23 2.294c.329.338.613.63.794.879.175.24.383.612.208 1.027-.176.416-.587.526-.882.568-.304.043-.712.043-1.184.043H3V15.5a.5.5 0 1 1-1 0V.98c0-.1 0-.219.014-.32A.744.744 0 0 1 2.22.22a.744.744 0 0 1 .439-.206C2.761 0 2.88 0 2.98 0Z" fill="#fff"/></symbol><symbol id="minus" viewBox="0 0 16 16" fill="none"><path d="M15.5 8H.5" stroke-linecap="round"/></symbol><symbol id="plus" viewBox="0 0 16 16" fill="none"><path d="M8 .5v15M15.5 8H.5" stroke-linecap="round"/></symbol><symbol id="arrow-to-right" viewBox="0 0 16 16" fill="none"><path d="m5 1 6.293 6.293a1 1 0 0 1 0 1.414L5 15" stroke-linecap="round" stroke-linejoin="round"/></symbol><symbol id="arrow-to-left" viewBox="0 0 16 16" fill="none"><path d="M11 1 4.707 7.293a1 1 0 0 0 0 1.414L11 15" stroke-linecap="round" stroke-linejoin="round"/></symbol><symbol id="close" viewBox="0 0 16 16" fill="none"><path d="m15.5.5-15 15m0-15 15 15" stroke-linecap="round" stroke-linejoin="round"/></symbol><symbol id="arrow-right-long" viewBox="0 0 16 16"><path d="M11 8H.5" stroke-linecap="round" stroke-linejoin="round"/><path d="m15.643 8.214-3.431 2.059A.8.8 0 0 1 11 9.587V6.413a.8.8 0 0 1 1.212-.686l3.43 2.059a.25.25 0 0 1 0 .428Z"/></symbol><symbol id="info" viewBox="0 0 16 16"><path d="M7.5 12.5a.5.5 0 0 0 1 0h-1Zm1-6a.5.5 0 0 0-1 0h1ZM15 8a7 7 0 0 1-7 7v1a8 8 0 0 0 8-8h-1Zm-7 7a7 7 0 0 1-7-7H0a8 8 0 0 0 8 8v-1ZM1 8a7 7 0 0 1 7-7V0a8 8 0 0 0-8 8h1Zm7-7a7 7 0 0 1 7 7h1a8 8 0 0 0-8-8v1Zm0 2.5v1a1 1 0 0 0 1-1H8Zm0 0H7a1 1 0 0 0 1 1v-1Zm0 0v-1a1 1 0 0 0-1 1h1Zm0 0h1a1 1 0 0 0-1-1v1Zm.5 9v-6h-1v6h1Z" fill="#146B87"/></symbol></defs></svg>