<svg aria-hidden="true" style="position: absolute; width: 0; height: 0; overflow: hidden;" version="1.1"
    xmlns="http://www.w3.org/2000/svg" xmlns:xlink="http://www.w3.org/1999/xlink">
    <defs>
        <!--Expand icon-->
        <symbol id="expand" width="16" height="16" viewBox="0 0 16 16" fill="none">
            <path d="M15.5 10.5V15.5M15.5 15.5H10.5M15.5 15.5L10.8125 10.8125" stroke="black" stroke-linecap="round" stroke-linejoin="round"/>
            <path d="M0.5 10.5V15.5M0.5 15.5H5.5M0.5 15.5L5.1875 10.8125" stroke="black" stroke-linecap="round" stroke-linejoin="round"/>
            <path d="M15.5 5.5V0.5M15.5 0.5H10.5M15.5 0.5L10.8125 5.1875" stroke="black" stroke-linecap="round" stroke-linejoin="round"/>
            <path d="M0.5 5.5V0.5M0.5 0.5H5.5M0.5 0.5L5.1875 5.1875" stroke="black" stroke-linecap="round" stroke-linejoin="round"/>
        </symbol>
        <!--Check icon-->
        <symbol id="check" width="14" height="12" viewBox="0 0 14 12" fill="none">
            <path d="M1.375 8.21591L4.05842 10.2773C4.49053 10.6092 5.10885 10.5341 5.44893 10.1084L12.625 1.125" stroke="white" stroke-linecap="round"/>
        </symbol>
        <!--Star icon-->
        <symbol id="star" width="16" height="16" viewBox="0 0 16 16" fill="none">
            <path d="M6.38599 3.29526C7.06995 1.59016 7.41193 0.73761 8 0.73761C8.58807 0.73761 8.93005 1.59016 9.61401 3.29526L9.64586 3.37466C10.0323 4.33796 10.2255 4.81961 10.6192 5.11236C11.013 5.40512 11.5299 5.45141 12.5636 5.54399L12.7505 5.56073C14.4424 5.71225 15.2884 5.78801 15.4694 6.32622C15.6504 6.86443 15.0222 7.436 13.7657 8.57912L13.3463 8.96064C12.7103 9.53931 12.3923 9.82865 12.244 10.2079C12.2164 10.2786 12.1934 10.3511 12.1752 10.4248C12.0778 10.8202 12.1709 11.2399 12.3572 12.0794L12.4151 12.3407C12.7574 13.8835 12.9286 14.6549 12.6298 14.9876C12.5181 15.1119 12.373 15.2015 12.2117 15.2454C11.7803 15.3632 11.1677 14.864 9.94266 13.8658C9.13821 13.2103 8.73599 12.8825 8.27419 12.8088C8.09255 12.7798 7.90745 12.7798 7.72581 12.8088C7.26401 12.8825 6.86179 13.2103 6.05734 13.8658C4.83225 14.864 4.2197 15.3632 3.78825 15.2454C3.62703 15.2015 3.4819 15.1119 3.37024 14.9876C3.07141 14.6549 3.24256 13.8835 3.58486 12.3407L3.64283 12.0794C3.82909 11.2399 3.92222 10.8202 3.82479 10.4248C3.80661 10.3511 3.78362 10.2786 3.75597 10.2079C3.60775 9.82865 3.28972 9.53931 2.65367 8.96064L2.23432 8.57913C0.97785 7.436 0.349612 6.86443 0.530625 6.32622C0.711637 5.78801 1.55759 5.71225 3.24948 5.56073L3.43637 5.54399C4.47014 5.45141 4.98703 5.40512 5.38078 5.11236C5.77454 4.81961 5.96774 4.33796 6.35414 3.37466L6.38599 3.29526Z" fill="#F1582B"/>
        </symbol>
        <!--Chevron-right icon-->
        <symbol id="chevron-right" width="12" height="12" viewBox="0 0 12 12" fill="none" >
            <path d="M3.75 0.75L8.29289 5.29289C8.68342 5.68342 8.68342 6.31658 8.29289 6.70711L3.75 11.25" stroke="#042A30" stroke-linecap="round" stroke-linejoin="round"/>
        </symbol>
        <!--Flag icon-->
        <symbol id="flag" width="16" height="16" viewBox="0 0 16 16" fill="none" >
            <path fill-rule="evenodd" clip-rule="evenodd" d="M2.9803 8.66414e-06C2.98695 1.28365e-05 2.99351 1.69492e-05 2.99999 1.69492e-05L12.6719 1.5161e-05C13.1436 -1.69659e-05 13.5517 -4.46811e-05 13.8558 0.0431671C14.1506 0.085069 14.562 0.195047 14.7377 0.610837C14.9133 1.02663 14.7054 1.39824 14.53 1.63886C14.349 1.88699 14.0645 2.17956 13.7356 2.51778L11.5056 4.81154C11.1756 5.15092 10.9635 5.37056 10.8278 5.55313C10.7008 5.72408 10.6864 5.80401 10.6864 5.85716C10.6864 5.91031 10.7008 5.99024 10.8278 6.16119C10.9635 6.34376 11.1756 6.5634 11.5056 6.90278L13.7356 9.19652C14.0645 9.53474 14.349 9.82732 14.53 10.0755C14.7054 10.3161 14.9133 10.6877 14.7377 11.1035C14.562 11.5193 14.1506 11.6292 13.8558 11.6712C13.5517 11.7144 13.1436 11.7143 12.6719 11.7143L2.99999 11.7143V15.5C2.99999 15.7762 2.77613 16 2.49999 16C2.22384 16 1.99999 15.7762 1.99999 15.5V1.00002C1.99999 0.993544 1.99998 0.986977 1.99998 0.980325C1.99992 0.880388 1.99984 0.761403 2.0136 0.659075C2.03021 0.535552 2.07466 0.364683 2.21966 0.219687C2.36465 0.0746907 2.53552 0.0302357 2.65904 0.0136285C2.76137 -0.000129201 2.88036 -5.4338e-05 2.9803 8.66414e-06Z" fill="#ffffff"/>
        </symbol>
        <!--Minus icon-->
        <symbol id="minus" width="16" height="16" viewBox="0 0 16 16" fill="none" >
            <path d="M15.5 8L0.5 8" stroke-linecap="round"/>
        </symbol>
        <!--Plus icon-->
        <symbol id="plus" width="16" height="16" viewBox="0 0 16 16" fill="none" >
            <path d="M8 0.5L8 15.5M15.5 8L0.5 8" stroke-linecap="round"/>
        </symbol>
        <!--Arrow-to-right icon-->
        <symbol id="arrow-to-right" width="16" height="16" viewBox="0 0 16 16" fill="none" >
            <path d="M5 1L11.2929 7.29289C11.6834 7.68342 11.6834 8.31658 11.2929 8.70711L5 15" stroke-linecap="round" stroke-linejoin="round"/>
        </symbol>
        <!--Arrow-to-left icon-->
        <symbol id="arrow-to-left" width="16" height="16" viewBox="0 0 16 16" fill="none" >
            <path d="M11 1L4.70711 7.29289C4.31658 7.68342 4.31658 8.31658 4.70711 8.70711L11 15" stroke-linecap="round" stroke-linejoin="round"/>
        </symbol>
        <!--Close icon-->
        <symbol id="close" width="16" height="16" viewBox="0 0 16 16" fill="none" >
            <path d="M15.5 0.5L0.5 15.5M0.5 0.5L15.5 15.5" stroke-linecap="round" stroke-linejoin="round"/>
        </symbol>
        <!--Arrow-right-long icon-->
        <symbol id="arrow-right-long" width="16" height="16" viewBox="0 0 16 16">
            <path d="M11 8L0.5 8" stroke-linecap="round" stroke-linejoin="round"/>
            <path d="M15.6427 8.21437L12.2116 10.273C11.6784 10.593 11 10.2089 11 9.58705L11 6.41295C11 5.79112 11.6784 5.40703 12.2116 5.72696L15.6427 7.78563C15.8045 7.88273 15.8045 8.11727 15.6427 8.21437Z" />
        </symbol>
        <!--Info icon-->
        <symbol id="info" width="16" height="16" viewBox="0 0 16 16">
            <path d="M7.5 12.5C7.5 12.7761 7.72386 13 8 13C8.27614 13 8.5 12.7761 8.5 12.5H7.5ZM8.5 6.5C8.5 6.22386 8.27614 6 8 6C7.72386 6 7.5 6.22386 7.5 6.5H8.5ZM15 8C15 11.866 11.866 15 8 15V16C12.4183 16 16 12.4183 16 8H15ZM8 15C4.13401 15 1 11.866 1 8H0C0 12.4183 3.58172 16 8 16V15ZM1 8C1 4.13401 4.13401 1 8 1V0C3.58172 0 0 3.58172 0 8H1ZM8 1C11.866 1 15 4.13401 15 8H16C16 3.58172 12.4183 0 8 0V1ZM8 3.5V4.5C8.55229 4.5 9 4.05228 9 3.5H8ZM8 3.5H7C7 4.05228 7.44772 4.5 8 4.5V3.5ZM8 3.5V2.5C7.44772 2.5 7 2.94772 7 3.5H8ZM8 3.5H9C9 2.94772 8.55229 2.5 8 2.5V3.5ZM8.5 12.5V6.5H7.5V12.5H8.5Z" fill="#146B87"/>
        </symbol>
    </defs>
</svg>